<?xml version="1.0" encoding="utf-8"?>
<!-- Generator: Adobe Illustrator 27.1.1, SVG Export Plug-In . SVG Version: 6.00 Build 0)  -->
<svg version="1.2" baseProfile="tiny" id="Layer_1" xmlns="http://www.w3.org/2000/svg" xmlns:xlink="http://www.w3.org/1999/xlink"
	 x="0px" y="0px" viewBox="0 0 300 300" overflow="visible" xml:space="preserve">
<g>
	<linearGradient id="SVGID_1_" gradientUnits="userSpaceOnUse" x1="49.0562" y1="152.7039" x2="259.6475" y2="152.7039">
		<stop  offset="0.2566" style="stop-color:#2563EB"/>
		<stop  offset="0.7614" style="stop-color:#DC2626"/>
	</linearGradient>
	<path fill="url(#SVGID_1_)" d="M138.94,224v4.68H88.19V89.73H49.06l64.51-64.51l56.02,56.02v-4.58h50.75v139.03h39.3l-64.51,64.51
		L138.94,224z M169.59,215.68v-43.67h-30.65v43.67H169.59z M169.59,128.2V89.73h-30.65v38.47H169.59z"/>
	<path fill="#231F20" d="M113.57,34.41l48.82,48.82h-29.94v51.47h43.65V83.16h37.75v139.03h30.11L195.14,271l-48.82-48.82h29.77
		v-56.68h-43.65v56.68H94.69V83.23H64.75L113.57,34.41 M113.57,16.02l-9.19,9.19L55.56,74.03L33.36,96.23h31.38h16.94v125.96v13h13
		h37.75h8.49l45.01,45.01l9.19,9.19l9.19-9.19l48.82-48.82l22.19-22.19h-31.38h-17.11V83.16v-13h-13h-37.75h-8.39l-44.94-44.94
		L113.57,16.02L113.57,16.02z M145.44,96.23h16.94h0.7v25.47h-17.65V96.23L145.44,96.23z M145.44,178.51h17.65v30.68h-16.77h-0.88
		V178.51L145.44,178.51z"/>
</g>
<g>
</g>
<g>
</g>
<g>
</g>
<g>
</g>
<g>
</g>
<g>
</g>
<g>
</g>
<g>
</g>
<g>
</g>
<g>
</g>
<g>
</g>
<g>
</g>
<g>
</g>
<g>
</g>
<g>
</g>
</svg>
